<svg width="126" height="49" viewBox="0 0 126 49" fill="none" xmlns="http://www.w3.org/2000/svg">
<rect width="126" height="49" fill="#080032"/>
<g clip-path="url(#clip0_375_13)">
<path d="M60.1832 23.265L57.7548 20.9151V16.7168H61.2914V20.3099H70.4509V13.091H60.2864L57.8906 10.7738V2.31724L60.2864 0H71.4234L73.8518 2.31724V6.98442H70.3151V2.95516H61.4001V10.1413H71.5266L73.955 12.4913V20.9206L71.5266 23.2705H60.1832V23.265Z" fill="white"/>
<path d="M90.78 12.8947H83.0113V20.3153H92.3772V14.4377L90.78 12.8947ZM92.2414 2.95516H83.0113V10.2067H90.6442L92.2414 8.69645V2.95516ZM79.404 23.265V0H93.3823L95.8107 2.31724V9.33437L93.5887 11.4826L95.9465 13.7998V20.9151L93.5181 23.265H79.3986H79.404Z" fill="white"/>
<path d="M103.166 23.265L100.738 20.9151V16.7168H104.275V20.3099H113.434V13.091H103.27L100.874 10.7738V2.31724L103.27 0H114.407L116.835 2.31724V6.98442H113.298V2.95516H104.383V10.1413H114.51L116.938 12.4913V20.9206L114.51 23.2705H103.166V23.265Z" fill="white"/>
<path d="M122.393 0H126V23.265H122.393V0Z" fill="white"/>
<path d="M57.8906 48.8965V39.9438L59.6833 38.2099H68.9624V29.8024H60.1234V33.7935H57.9232V29.5625L59.6833 27.856H69.3698L71.1626 29.5625V38.3953L69.3372 40.1618H60.0908V46.95H71.2875V48.8965H57.8851H57.8906Z" fill="white"/>
<path d="M78.4315 46.89H87.2108V29.8679H78.4315V46.89ZM78.0241 48.8965L76.2313 47.1626V29.5625L78.0241 27.856H87.6508L89.411 29.5625V47.1626L87.6508 48.8965H78.0241Z" fill="white"/>
<path d="M94.3493 48.8965V39.9438L96.1421 38.2099H105.421V29.8024H96.5821V33.7935H94.3819V29.5625L96.1421 27.856H105.829L107.621 29.5625V38.3953L105.796 40.1618H96.5495V46.95H107.746V48.8965H94.3439H94.3493Z" fill="white"/>
<path d="M114.896 46.9772H123.8V39.1532H114.896V46.9772ZM114.483 48.8965L112.69 47.1626V29.5625L114.483 27.856H123.952L125.745 29.5625V33.6736H123.544V29.7752H114.896V37.2339H124.24L126 38.9678V47.1572L124.24 48.891H114.488L114.483 48.8965Z" fill="white"/>
<path d="M48.6659 17.0276L44.8196 15.9044V13.6253L44.5045 13.0201L40.3539 10.3976V5.16335L40.1692 4.67809C39.3326 3.74574 38.4253 3.45132 37.518 3.26594V0H36.2414V3.26049C35.3558 3.47313 34.4812 3.81117 33.726 4.67264L33.5413 5.15789V9.9832L28.7334 13.0147L28.4183 13.6199V16.0298L25.6911 17.7146V8.92H27.8153L28.4563 8.21665V5.73039L27.8153 5.03794H25.6911V3.50584L25.0555 2.8134H22.6977L22.0621 3.50584V5.03794H19.9216L19.2806 5.73039V8.21665L19.9216 8.92H22.0621V19.95L20.7582 20.8333V10.8665L19.8021 10.2613L15.5755 12.9275H10.773L10.1319 13.6308V25.4841L1.77648 29.9169L1.41793 30.5493V44.7036C0.592161 45.0089 0 45.8213 0 46.7536C0 47.9913 0.939853 49.0109 2.07528 49.0109C3.21071 49.0109 4.1397 47.9913 4.1397 46.7536C4.1397 46.0994 3.8409 45.0144 2.7598 44.6981C2.73807 44.6927 2.71634 44.6818 2.69461 44.6818V31.1273L20.5464 27.387L20.6605 27.3488L24.735 25.5441V30.1786H23.241V31.5744H25.3815L26.0171 30.8819V24.9825L38.8328 19.3176V26.2638C37.969 26.5364 37.2681 27.1798 37.2681 28.1994C37.2681 29.4425 38.2026 30.4567 39.3326 30.4567C40.4626 30.4567 41.397 29.4425 41.397 28.1994C41.397 27.2834 40.8428 26.6291 40.104 26.2856V18.2762L39.2293 17.6328L20.2367 26.0239L6.68219 28.87L11.0446 26.5473L11.4032 25.9149V14.3287H15.7385L16.059 14.2306L19.4761 12.0769V15.779H13.435V17.1748H19.4761V22.0873L20.4486 22.6871L23.0345 20.9424L23.3388 20.3535V8.21665L22.6977 7.5242H20.5572V6.43374H22.6977L23.3388 5.73039V4.20919H24.4199V5.73039L25.0555 6.43374H27.1797V7.5242H25.0555L24.4199 8.21665V18.9141L25.3706 19.5193L29.369 17.0494L29.695 16.4442V14.0288L34.4975 10.9973L34.818 10.3921V5.55046C35.5568 4.78714 36.2468 4.32914 36.8987 4.31279C37.5506 4.29643 38.2732 4.72716 39.0718 5.55046V10.8065L39.3923 11.4117L43.5374 14.0288V14.3396H36.8607C36.6054 13.3963 35.9426 12.6385 35.0082 12.6385C33.8782 12.6385 32.9437 13.6581 32.9437 14.9012C32.9437 16.1443 33.8782 17.153 35.0082 17.153C35.8828 17.153 36.4967 16.4769 36.7955 15.6318V15.7354H43.5374V16.4442L44.0101 17.1148L47.8564 18.2489V23.4068H42.9453V24.8026H47.8564V29.9496L46.8351 30.6857C46.4548 30.2549 45.9387 29.966 45.3465 29.966C44.2165 29.966 43.2821 30.9801 43.2821 32.2232C43.2821 33.4663 44.2165 34.475 45.3465 34.475C46.4765 34.475 47.4109 33.4609 47.4109 32.2232C47.4109 32.1251 47.3403 32.0815 47.3295 31.9997L47.8564 31.6235L48.7528 30.9801L49.1331 30.244V17.7146L48.6605 17.0385L48.6659 17.0276ZM2.86302 46.7427C2.86302 47.228 2.52076 47.6042 2.07528 47.6042C1.6298 47.6042 1.28211 47.228 1.28211 46.7427C1.28211 46.2575 1.6298 45.8813 2.07528 45.8813C2.52076 45.8813 2.86302 46.2575 2.86302 46.7427ZM39.3543 27.3488C39.7998 27.3488 40.1475 27.7305 40.1475 28.2158C40.1475 28.701 39.7998 29.0772 39.3543 29.0772C38.9088 29.0772 38.5665 28.6956 38.5665 28.2158C38.5665 27.736 38.9088 27.3488 39.3543 27.3488ZM35.0353 15.7845C34.5953 15.7845 34.2476 15.4028 34.2476 14.923C34.2476 14.4432 34.5953 14.0561 35.0353 14.0561C35.4754 14.0561 35.8231 14.4377 35.8231 14.923C35.8231 15.4083 35.4808 15.7845 35.0353 15.7845ZM45.3737 33.101C44.9336 33.101 44.586 32.7194 44.586 32.2396C44.586 31.7598 44.9336 31.3726 45.3737 31.3726C45.8137 31.3726 46.1614 31.7543 46.1614 32.2396C46.1614 32.7248 45.8192 33.101 45.3737 33.101Z" fill="white"/>
<path d="M34.3998 34.9219L33.8022 35.5271V36.2795H27.4242V37.7135H33.8022V41.6282H27.4242V43.0622H33.8022V44.3816H25.8053V40.4069H32.1832V38.9729H25.8053V35.5271L25.2022 34.9219H19.3675L18.9492 35.0745L9.18128 44.856C8.34465 44.5943 7.42109 44.8669 6.89955 45.5757C6.21504 46.519 6.40518 47.8548 7.31787 48.5254C8.23056 49.196 9.5507 48.9725 10.2406 48.0347C10.5938 47.5494 10.9469 46.5844 10.3276 45.7229L19.6609 36.3558H24.3765V45.2159L24.9741 45.8211H34.6279L35.231 45.2159V36.3558H42.4944V34.9219H34.3998ZM9.21387 47.2714C8.94224 47.6421 8.45873 47.7294 8.10018 47.4622C7.74162 47.2005 7.66556 46.7043 7.93176 46.3336C8.2034 45.9628 8.69777 45.8865 9.06176 46.1482C9.42032 46.4154 9.48551 46.9006 9.21387 47.2714Z" fill="white"/>
</g>
<defs>
<clipPath id="clip0_375_13">
<rect width="126" height="49" fill="white"/>
</clipPath>
</defs>
</svg>
